<svg width="192" height="192" viewBox="0 0 680 680" xmlns="http://www.w3.org/2000/svg">
<rect width="680" height="680" rx="120" fill="#1a1a1a"/>
<polygon points="140,320 220,100 310,280" fill="#ff6611"/>
<polygon points="540,320 460,100 370,280" fill="#ff6611"/>
<polygon points="175,295 225,140 295,270" fill="#ff9944"/>
<polygon points="505,295 455,140 385,270" fill="#ff9944"/>
<ellipse cx="340" cy="370" rx="200" ry="190" fill="#ff6611"/>
<ellipse cx="340" cy="450" rx="110" ry="90" fill="#ffe0cc"/>
<ellipse cx="270" cy="340" rx="32" ry="34" fill="#1a1a1a"/>
<ellipse cx="410" cy="340" rx="32" ry="34" fill="#1a1a1a"/>
<ellipse cx="270" cy="342" rx="18" ry="20" fill="#4a2800"/>
<ellipse cx="410" cy="342" rx="18" ry="20" fill="#4a2800"/>
<ellipse cx="270" cy="344" rx="10" ry="12" fill="#0a0a0a"/>
<ellipse cx="410" cy="344" rx="10" ry="12" fill="#0a0a0a"/>
<circle cx="278" cy="336" r="5" fill="white"/>
<circle cx="418" cy="336" r="5" fill="white"/>
<ellipse cx="340" cy="415" rx="18" ry="12" fill="#cc3300"/>
<path d="M322 428 Q340 448 358 428" fill="none" stroke="#cc3300" stroke-width="4" stroke-linecap="round"/>
<path d="M245 308 Q270 295 295 305" fill="none" stroke="#cc4400" stroke-width="5" stroke-linecap="round"/>
<path d="M385 305 Q410 295 435 308" fill="none" stroke="#cc4400" stroke-width="5" stroke-linecap="round"/>
</svg>
